<?xml version="1.0" encoding="utf-8"?>
<!-- Generator: Adobe Illustrator 16.0.0, SVG Export Plug-In . SVG Version: 6.00 Build 0)  -->
<!DOCTYPE svg PUBLIC "-//W3C//DTD SVG 1.1//EN" "http://www.w3.org/Graphics/SVG/1.1/DTD/svg11.dtd">
<svg version="1.1" id="Layer_1" xmlns="http://www.w3.org/2000/svg" xmlns:xlink="http://www.w3.org/1999/xlink" x="0px" y="0px"
	 width="50px" height="50px" viewBox="0 0 50 50" enable-background="new 0 0 50 50" xml:space="preserve">
<g>
	<g>
		<path fill="#FFFFFF" d="M23.623,18.942c-6.533-0.05-11.987,5.279-11.927,11.683c-0.118,6.43,5.287,11.747,11.729,11.797
			c6.533,0.053,11.918-5.271,11.946-11.682C35.4,24.276,30.029,18.99,23.623,18.942z M23.505,40.07
			c-5.334-0.012-9.39-4.162-9.479-9.406c0.115-5.279,4.217-9.382,9.516-9.371c5.325,0.012,9.468,4.153,9.457,9.408
			C32.986,35.979,28.809,40.084,23.505,40.07z M23.559,22.243c-4.719-0.009-8.552,3.778-8.551,8.446
			c0.001,4.66,3.848,8.449,8.565,8.435c4.653-0.013,8.475-3.823,8.472-8.448C32.041,26.049,28.221,22.252,23.559,22.243z
			 M19.4,30.318h-2.624c0.138-0.7,0.264-1.34,0.409-2.082c0.898,0.34,1.669,0.631,2.48,0.938
			C19.571,29.581,19.488,29.939,19.4,30.318z M20.044,28.577c-0.81-0.302-1.61-0.599-2.504-0.931
			c1.063-1.948,2.654-3.023,4.835-3.521v2.632C21.436,27.135,20.627,27.665,20.044,28.577z M23.437,33.243
			c-1.431-0.033-2.59-1.302-2.506-2.668c0.086-1.416,1.347-2.556,2.721-2.462c1.432,0.099,2.594,1.361,2.458,2.715
			C25.936,32.529,24.643,33.271,23.437,33.243z M26.684,34.618c-0.418-0.029-0.705-0.334-0.703-0.744
			c0-0.433,0.347-0.767,0.783-0.759c0.448,0.009,0.754,0.34,0.734,0.798C27.479,34.37,27.154,34.65,26.684,34.618z M49.602,26.542
			c-1.25-3.602-3.752-5.784-7.555-6.443c-0.635-0.11-1.291-0.099-1.929-0.143c-2.021-4.498-5.47-6.588-10.515-6.072
			c-1.729-2.893-4.208-4.923-7.523-5.846c-2.505-0.697-5.008-0.594-7.478,0.244c-4.667,1.583-8.599,6.253-8.354,12.231
			c-0.189,0.082-0.395,0.166-0.596,0.258c-3.079,1.416-4.966,3.75-5.556,7.084C0.08,27.947,0.033,28.033,0,28.122v2.323
			c0.131,0.525,0.222,1.066,0.399,1.58c1.249,3.602,3.752,5.776,7.552,6.447c0.413,0.071,0.84,0.094,1.26,0.094
			c1.123,0.002,2.245,0,3.367,0.002c-0.727-0.942-1.33-1.982-1.788-3.098H9.803c-0.597-0.001-1.205-0.06-1.789-0.182
			c-2.431-0.512-4.38-2.479-4.766-4.928c-0.407-2.574,0.517-4.643,2.667-6.159c0.781-0.552,1.697-0.791,2.579-1.109
			c0.345-0.125,0.691-0.246,0.956-0.34c0-0.851,0.047-1.625-0.013-2.393c-0.069-0.881,0.026-1.735,0.231-2.583
			c1.278-5.289,7.02-8.357,12.178-6.505c2.181,0.782,3.83,2.202,4.992,4.185c0.374,0.638,0.732,1.285,1.107,1.946
			c0.217-0.03,0.408-0.055,0.599-0.083c0.865-0.133,1.728-0.352,2.597-0.383c2.68-0.095,5.08,1.626,5.977,4.199
			c0.246,0.712,0.5,1.422,0.763,2.165c0.459-0.026,0.894-0.057,1.329-0.076c0.825-0.036,1.648-0.172,2.479-0.033
			c4.453,0.747,6.651,5.923,4.059,9.587c-1.339,1.892-3.232,2.701-5.531,2.699h-4.176c-0.459,1.112-1.062,2.151-1.789,3.094
			c2.182,0.001,4.361,0,6.54,0.002c4.321,0.005,8.403-3.251,9.114-7.814c0.016-0.107,0.063-0.211,0.098-0.314v-2.323
			C49.869,27.595,49.777,27.055,49.602,26.542z"/>
	</g>
</g>
</svg>
