<?xml version="1.0" encoding="UTF-8" standalone="no"?>
<!-- Generator: Adobe Illustrator 21.0.0, SVG Export Plug-In . SVG Version: 6.00 Build 0)  -->

<svg
   xmlns:dc="http://purl.org/dc/elements/1.1/"
   xmlns:cc="http://creativecommons.org/ns#"
   xmlns:rdf="http://www.w3.org/1999/02/22-rdf-syntax-ns#"
   xmlns:svg="http://www.w3.org/2000/svg"
   xmlns="http://www.w3.org/2000/svg"
   xmlns:xlink="http://www.w3.org/1999/xlink"
   xmlns:sodipodi="http://sodipodi.sourceforge.net/DTD/sodipodi-0.dtd"
   xmlns:inkscape="http://www.inkscape.org/namespaces/inkscape"
   version="1.1"
   id="Layer_1"
   x="0px"
   y="0px"
   viewBox="0 0 286 180"
   xml:space="preserve"
   sodipodi:docname="panda.svg"
   width="286"
   height="180"
   inkscape:version="0.92.3 (2405546, 2018-03-11)"><metadata
   id="metadata107"><rdf:RDF><cc:Work
       rdf:about=""><dc:format>image/svg+xml</dc:format><dc:type
         rdf:resource="http://purl.org/dc/dcmitype/StillImage" /><dc:title></dc:title></cc:Work></rdf:RDF></metadata><defs
   id="defs105" /><sodipodi:namedview
   pagecolor="#ffffff"
   bordercolor="#666666"
   borderopacity="1"
   objecttolerance="10"
   gridtolerance="10"
   guidetolerance="10"
   inkscape:pageopacity="0"
   inkscape:pageshadow="2"
   inkscape:window-width="1853"
   inkscape:window-height="1025"
   id="namedview103"
   showgrid="false"
   fit-margin-top="0"
   fit-margin-left="0"
   fit-margin-right="0"
   fit-margin-bottom="0"
   inkscape:zoom="1.1212733"
   inkscape:cx="105.49296"
   inkscape:cy="68.80812"
   inkscape:window-x="67"
   inkscape:window-y="27"
   inkscape:window-maximized="1"
   inkscape:current-layer="Layer_1" />
<style
   type="text/css"
   id="style2">
	.st0{fill:#FFFFFF;}
	.st1{fill:none;stroke:#5FD35F;stroke-width:3.6;}
	.st2{fill-rule:evenodd;clip-rule:evenodd;fill:#FFFFFF;}
	.st3{clip-path:url(#SVGID_2_);fill:none;stroke:#37ABC8;stroke-width:3.6;}
	.st4{clip-path:url(#SVGID_2_);fill-rule:evenodd;clip-rule:evenodd;fill:#FFFFFF;}
	.st5{fill:none;stroke:#37ABC8;stroke-width:3.6;}
	.st6{fill-rule:evenodd;clip-rule:evenodd;fill:#80E5FF;}
	.st7{fill:#80E5FF;}
</style>
<path
   class="st0"
   d="m 95.312546,103.97796 c 2.78515,4.81831 8.940324,6.46155 13.786484,3.6764 4.81831,-2.78515 6.46154,-8.940329 3.6764,-13.758627 -2.78515,-4.81831 -8.94033,-6.46155 -13.786494,-3.70425 -4.8183,2.78515 -6.46154,8.968178 -3.67639,13.786477 z m 0,0"
   id="path4"
   inkscape:connector-curvature="0"
   style="fill:#ffffff;stroke-width:0.2785148" />
<path
   class="st1"
   d="m 95.312546,103.97796 c 2.78515,4.81831 8.940324,6.46155 13.758634,3.70425 4.8183,-2.78515 6.46154,-8.940329 3.67639,-13.758627 -2.78514,-4.81831 -8.94032,-6.46155 -13.758634,-3.70425 -4.8183,2.7573 -6.46154,8.940328 -3.67639,13.758627 z m 0,0"
   id="path6"
   inkscape:connector-curvature="0"
   style="fill:none;stroke:#5fd35f;stroke-width:1.00265324" />
<path
   class="st0"
   d="m 137.14547,37.997803 c 0.89125,5.06897 5.65385,8.46685 10.63927,7.57561 4.98541,-0.89125 8.29974,-5.70956 7.40849,-10.77853 -0.89125,-5.06896 -5.65385,-8.46685 -10.63927,-7.5756 -4.98541,0.89125 -8.29974,5.70955 -7.40849,10.77852 z m 0,0"
   id="path8"
   inkscape:connector-curvature="0"
   style="fill:#ffffff;stroke-width:0.2785148" />
<path
   class="st2"
   d="m 122.10567,174.49791 -41.192344,-0.0557 0.22281,-8.71752 c 0.22281,-2.61803 2.89656,-6.40584 5.65385,-8.35544 2.56234,-1.81035 6.82362,-5.45889 6.51725,-7.12998 1.11406,-15.29046 1.61539,-19.691 -0.0557,-48.09951 l 20.610094,4.95757 c 1.14191,13.98144 2.06101,28.40851 1.8382,42.69632 0.72414,2.75729 2.03316,4.12202 3.87136,5.93236 l 0.61273,1.53183 z m 0,0"
   id="path10"
   inkscape:connector-curvature="0"
   style="clip-rule:evenodd;fill:#ffffff;fill-rule:evenodd;stroke-width:0.2785148" />
<g
   id="g24"
   transform="matrix(0.27851481,0,0,0.27851481,61.194475,-56.641527)">
	<defs
   id="defs13">
		<rect
   id="SVGID_1_"
   x="11.8"
   y="65.300003"
   width="1038.9"
   height="767" />
	</defs>
	<clipPath
   id="SVGID_2_">
		<use
   xlink:href="#SVGID_1_"
   style="overflow:visible"
   id="use15"
   x="0"
   y="0"
   width="100%"
   height="100%" />
	</clipPath>
	<path
   class="st3"
   d="m 218.7,829.9 -147.9,-0.2 0.8,-31.3 c 0.8,-9.4 10.4,-23 20.3,-30 9.2,-6.5 24.5,-19.6 23.4,-25.6 4,-54.9 5.8,-70.7 -0.2,-172.7 l 74,17.8 c 4.1,50.2 7.4,102 6.6,153.3 2.6,9.9 7.3,14.8 13.9,21.3 l 2.2,5.5 z m 0,0"
   clip-path="url(#SVGID_2_)"
   id="path18"
   inkscape:connector-curvature="0"
   style="fill:none;stroke:#37abc8;stroke-width:3.5999999" />
	<path
   class="st4"
   d="m 106.4,342.2 c -8.1,12 0.7,50 25.3,91.3 24.6,41.3 83.4,100 70.4,144.3 -1.3,3.6 -4.9,10.6 -7.5,13.6 -2.6,3 -5.3,6 -13.9,10.7 -8.5,4.8 -18.1,8.4 -30.7,5.8 -12.5,-2.6 -26.6,-9 -32.7,-18.4 C 91.5,541.5 65.4,492.1 42.4,446.6 35.1,432.1 28.9,417.1 22.5,403.7 18.9,387.5 10.7,369.6 14.9,356.2 c 4.2,-12.9 9.5,-15.7 14.7,-19.4 l 19,-13 c 7,-7.6 4.3,-11.8 9.4,-12.8 16.4,10.5 53.6,16.1 48.4,31.2 z m 0,0"
   clip-path="url(#SVGID_2_)"
   id="path20"
   inkscape:connector-curvature="0"
   style="clip-rule:evenodd;fill:#ffffff;fill-rule:evenodd" />
	<path
   class="st3"
   d="m 106.4,342.2 c -8.1,12 0.7,50 25.3,91.3 24.6,41.3 83.4,100 70.4,144.3 -1.3,3.6 -4.9,10.6 -7.5,13.6 -2.6,3 -5.3,6 -13.9,10.7 -8.5,4.8 -18.1,8.4 -30.7,5.8 -12.5,-2.6 -26.6,-9 -32.7,-18.4 C 91.5,541.5 65.4,492.1 42.4,446.6 35.1,432.1 28.9,417.1 22.5,403.7 18.9,387.5 10.7,369.6 14.9,356.2 c 4.2,-12.9 9.5,-15.7 14.7,-19.4 l 19,-13 c 7,-7.6 4.3,-11.8 9.4,-12.8 16.4,10.5 53.6,16.1 48.4,31.2 z m 0,0"
   clip-path="url(#SVGID_2_)"
   id="path22"
   inkscape:connector-curvature="0"
   style="fill:none;stroke:#37abc8;stroke-width:3.5999999" />
</g>
<path
   class="st0"
   d="m 102.55393,109.60396 c 5.48674,0.9748 10.72282,-2.70159 11.66977,-8.18833 0.9748,-5.486749 -2.70159,-10.722817 -8.18833,-11.669767 -5.48674,-0.97481 -10.722824,2.70159 -11.669774,8.188328 -0.94695,5.486739 2.70159,10.694969 8.188334,11.669769 z m 0,0"
   id="path26"
   inkscape:connector-curvature="0"
   style="fill:#ffffff;stroke-width:0.2785148" />
<path
   class="st5"
   d="m 102.55393,109.60396 c 5.48674,0.9748 10.72282,-2.70159 11.66977,-8.18833 0.9748,-5.486749 -2.70159,-10.722817 -8.18833,-11.669767 -5.48674,-0.97481 -10.722824,2.70159 -11.669774,8.188328 -0.94695,5.486739 2.70159,10.694969 8.188334,11.669769 z m 0,0"
   id="path28"
   inkscape:connector-curvature="0"
   style="fill:none;stroke:#37abc8;stroke-width:1.00265324" />
<path
   class="st2"
   d="m 206.18928,94.786973 0.0836,4.233428 c 0,1.838199 0.41777,4.316979 -0.97481,5.180369 l 0.13926,5.45889 -2.25597,0.13926 c 0.0279,-5.76526 -0.25066,-8.80107 -0.52918,-14.872687 z m 0,0"
   id="path30"
   inkscape:connector-curvature="0"
   style="clip-rule:evenodd;fill:#ffffff;fill-rule:evenodd;stroke-width:0.2785148" />
<path
   class="st5"
   d="m 206.18928,94.786973 0.0836,4.233428 c 0,1.838199 0.41777,4.316979 -0.97481,5.180369 l 0.13926,5.45889 -2.25597,0.11141 c 0.0279,-5.76526 -0.25066,-8.80107 -0.52918,-14.872687 z m 0,0"
   id="path32"
   inkscape:connector-curvature="0"
   style="fill:none;stroke:#37abc8;stroke-width:1.00265324" />
<path
   class="st6"
   d="m 202.8471,103.39308 c -2.39522,0.0279 -2.03315,0.27852 -1.8939,3.03581 0.0557,2.89656 -0.38992,3.62069 1.97746,3.42573 z m 0,0"
   id="path34"
   inkscape:connector-curvature="0"
   style="clip-rule:evenodd;fill:#80e5ff;fill-rule:evenodd;stroke-width:0.2785148" />
<path
   class="st5"
   d="m 202.8471,103.39308 c -2.39522,0.0279 -2.03315,0.27852 -1.8939,3.03581 0.0557,2.89656 -0.38992,3.64855 1.97746,3.42573 z m 0,0"
   id="path36"
   inkscape:connector-curvature="0"
   style="fill:none;stroke:#37abc8;stroke-width:1.00265324" />
<path
   class="st2"
   d="m 216.24367,78.187493 c 1.19761,1.47613 2.59018,2.39523 3.48143,4.7626 1.05836,3.39788 1.00265,5.65385 1.25332,8.66181 0.0557,1.47613 -0.27852,2.53449 -2.92441,2.78515 -24.34219,0.668438 -25.03848,0.974798 -37.51594,1.364728 -2.28382,-0.33422 -2.59019,-1.364728 -2.84085,-3.035818 -0.25067,-1.67109 -0.11141,-5.04111 0.30636,-7.5756 0.41778,-2.56234 0.61274,-5.09682 4.01062,-5.7374 l 7.24138,-0.83555 z m 0,0"
   id="path38"
   inkscape:connector-curvature="0"
   style="clip-rule:evenodd;fill:#ffffff;fill-rule:evenodd;stroke-width:0.2785148" />
<path
   class="st5"
   d="m 216.24367,78.187493 c 1.19761,1.47613 2.59018,2.39523 3.48143,4.7626 1.05836,3.39788 1.00265,5.65385 1.25332,8.66181 0.0557,1.47613 -0.27852,2.53449 -2.92441,2.78515 -24.34219,0.668438 -25.03848,0.974798 -37.51594,1.364728 -2.28382,-0.33422 -2.59019,-1.364728 -2.84085,-3.035818 -0.25067,-1.67109 -0.11141,-5.04111 0.30636,-7.5756 0.41778,-2.56234 0.61274,-5.09682 4.01062,-5.7374 l 7.24138,-0.83555 z m 0,0"
   id="path40"
   inkscape:connector-curvature="0"
   style="fill:none;stroke:#37abc8;stroke-width:1.00265324" />
<path
   class="st2"
   d="m 188.08582,67.353263 0.33422,2.98011 c 5.57029,-0.52917 9.60876,-0.66843 13.2573,-0.77984 2.53449,-0.0836 4.42839,-0.36207 5.5146,-0.72414 0.72413,-0.22281 1.0862,-0.22281 1.16976,-1.00265 0.0279,-0.33422 -0.19496,-0.9748 -0.30637,-1.47613 -0.30637,-1.42042 -1.78249,-5.51459 -1.19761,-6.93502 0.61273,-1.42042 0.77984,-2.06101 0.41777,-3.67639 -0.89125,-4.01062 -1.42043,-7.99338 -2.06101,-11.53052 -0.61273,-2.47878 -2.33952,-3.03581 -3.70425,-3.98276 -5.26393,-2.11671 -10.86207,-1.42042 -14.64988,-0.1114 -4.03846,2.28382 -7.04642,4.8183 -10.5,7.21353 z m 0,0"
   id="path42"
   inkscape:connector-curvature="0"
   style="clip-rule:evenodd;fill:#ffffff;fill-rule:evenodd;stroke-width:0.2785148" />
<path
   class="st5"
   d="m 188.08582,67.353263 0.33422,2.98011 c 5.57029,-0.52917 9.60876,-0.66843 13.2573,-0.77984 2.53449,-0.0836 4.42839,-0.36207 5.5146,-0.72414 0.72413,-0.22281 1.0862,-0.22281 1.16976,-1.00265 0.0279,-0.33422 -0.19496,-0.9748 -0.30637,-1.47613 -0.30637,-1.42042 -1.78249,-5.51459 -1.19761,-6.93502 0.61273,-1.42042 0.77984,-2.06101 0.41777,-3.67639 -0.89125,-4.01062 -1.42043,-7.99338 -2.06101,-11.53052 -0.61273,-2.47878 -2.33952,-3.03581 -3.70425,-3.98276 -5.26393,-2.11671 -10.86207,-1.42042 -14.64988,-0.1114 -4.03846,2.28382 -7.04642,4.8183 -10.5,7.21353 z m 0,0"
   id="path44"
   inkscape:connector-curvature="0"
   style="fill:none;stroke:#37abc8;stroke-width:1.00265324" />
<path
   class="st2"
   d="m 207.97178,70.946113 c 0,0 6.48939,1.81034 7.21353,2.0053 0.72414,0.19496 2.64589,0.94695 2.53448,3.11937 -0.1114,2.17241 -1.25331,2.25597 -2.22811,2.50663 -0.97481,0.27852 -7.10213,0.55703 -8.68967,0.33422 -1.58753,-0.22281 -7.32493,-2.64589 -7.32493,-2.64589 l 2.9244,-5.76526 z m 0,0"
   id="path46"
   inkscape:connector-curvature="0"
   style="clip-rule:evenodd;fill:#ffffff;fill-rule:evenodd;stroke-width:0.2785148" />
<path
   class="st5"
   d="m 207.97178,70.946113 c 0,0 6.48939,1.81034 7.21353,2.03315 0.72414,0.19496 2.64589,0.94695 2.53448,3.11937 -0.1114,2.17242 -1.25331,2.25597 -2.22811,2.50663 -0.97481,0.27852 -7.10213,0.55703 -8.68967,0.33422 -1.58753,-0.22281 -7.32493,-2.64589 -7.32493,-2.64589 l 2.9244,-5.76526 z m 0,0"
   id="path48"
   inkscape:connector-curvature="0"
   style="fill:none;stroke:#37abc8;stroke-width:1.00265324" />
<path
   class="st6"
   d="m 207.13623,68.829393 -17.18436,1.42043 -0.0279,6.99072 c -0.30637,0.8634 -1.28117,2.14456 0.13925,1.97746 4.42839,-0.66844 2.95226,1.22546 3.20292,3.73209 2.67375,0.0836 7.43635,-0.1671 11.08489,-0.44562 0.61274,-0.0557 -0.1671,-1.58753 0.16711,-2.31167 0.33422,-0.72414 0.50133,-1.05836 1.39258,-1.53183 -0.8634,-0.44563 -1.97746,-0.41778 -2.22812,-1.92176 0.47347,-2.0053 -2.36738,-7.10212 3.59284,-5.93236 z m 0,0"
   id="path50"
   inkscape:connector-curvature="0"
   style="clip-rule:evenodd;fill:#80e5ff;fill-rule:evenodd;stroke-width:0.2785148" />
<path
   class="st5"
   d="m 207.13623,68.829393 -17.18436,1.42043 -0.0279,6.99072 c -0.30637,0.8634 -1.28117,2.14456 0.13925,1.97746 4.42839,-0.66844 2.95226,1.22546 3.20292,3.73209 2.67375,0.0557 7.43635,-0.1671 11.08489,-0.44562 0.61274,-0.0557 -0.1671,-1.58753 0.16711,-2.31167 0.33422,-0.72414 0.50133,-1.05836 1.39258,-1.53183 -0.8634,-0.44563 -1.97746,-0.41778 -2.22812,-1.92176 0.47347,-2.0053 -2.36738,-7.10212 3.59284,-5.93236 z m 0,0"
   id="path52"
   inkscape:connector-curvature="0"
   style="fill:none;stroke:#37abc8;stroke-width:1.00265324" />
<path
   class="st6"
   d="m 212.53942,73.647703 c -2.61804,-0.41777 -3.11937,-0.0279 -2.70159,1.97745 0.30636,1.36473 -0.13926,1.94961 2.67374,2.00531 3.37003,-0.22281 3.09151,-0.9191 3.03581,-1.64324 -0.30637,-1.67109 -2.08886,-2.0053 -3.00796,-2.33952 z m 0,0"
   id="path54"
   inkscape:connector-curvature="0"
   style="clip-rule:evenodd;fill:#80e5ff;fill-rule:evenodd;stroke-width:0.2785148" />
<path
   class="st5"
   d="m 212.53942,73.647703 c -2.61804,-0.41777 -3.11937,-0.0279 -2.70159,1.97745 0.30636,1.36473 -0.13926,1.94961 2.67374,2.00531 3.37003,-0.22281 3.09151,-0.9191 3.03581,-1.64324 -0.30637,-1.67109 -2.08886,-2.0053 -3.00796,-2.33952 z m 0,0"
   id="path56"
   inkscape:connector-curvature="0"
   style="fill:none;stroke:#37abc8;stroke-width:1.00265324" />
<path
   class="st2"
   d="m 162.96379,53.204713 c -6.6565,-2.61804 -11.97613,-5.82096 -17.93635,-8.71751 -7.96552,-2.92441 -18.04776,-3.87136 -26.70957,-7.38064 -5.04112,-2.67375 -9.24669,-5.34749 -14.34351,-6.68436 -2.08886,-0.0279 -4.261284,0.11141 -6.740064,1.03051 l -5.34749,-15.9589 c 1.16977,-0.22281 2.89656,-0.52918 3.56499,-1.14191 1.69894,-2.33953 2.78515,-4.31698 4.706904,-6.4615498 2.61804,-2.20026 6.65651,-2.9800997 11.41911,-1.92175 17.51858,5.0968198 28.46422,14.3435098 38.15653,24.3700498"
   id="path58"
   inkscape:connector-curvature="0"
   style="clip-rule:evenodd;fill:#ffffff;fill-rule:evenodd;stroke-width:0.2785148" />
<path
   class="st5"
   d="m 162.96379,53.204713 c -6.6565,-2.61804 -11.97613,-5.82096 -17.93635,-8.71751 -7.96552,-2.92441 -18.04776,-3.87136 -26.70957,-7.38064 -5.04112,-2.67375 -9.24669,-5.34749 -14.34351,-6.68436 -2.08886,-0.0279 -4.261284,0.11141 -6.740064,1.03051 l -5.34749,-15.9589 c 1.16977,-0.22281 2.89656,-0.52918 3.56499,-1.14191 1.69894,-2.33953 2.78515,-4.31698 4.706904,-6.4615498 2.61804,-2.20026 6.65651,-2.9800997 11.41911,-1.92175 17.51858,5.0968198 28.46422,14.3435098 38.15653,24.3700498"
   id="path60"
   inkscape:connector-curvature="0"
   style="fill:none;stroke:#37abc8;stroke-width:1.00265324" />
<path
   class="st6"
   d="m 164.94124,38.081363 c 3.28647,1.39257 3.62069,1.61538 4.01061,1.69894 0.38992,0.0836 1.7825,-0.9748 10.72282,1.08621 8.94033,2.06101 11.14059,8.77321 8.82892,15.79179 -2.31167,7.04642 -11.00133,9.35809 -16.79444,6.04377 -2.8687,-1.44828 -5.06897,-4.37269 -8.80106,-9.49736 l -2.7573,-2.70159 -22.28118,-11.22415 -0.9191,-0.58488 c -3.70425,-2.36737 -5.96022,-5.76526 -4.31698,-9.99868 2.11671,-4.34483 6.12733,-4.03846 9.88728,-2.28382 l 7.18568,3.95491 c 0.0279,-0.0279 11.94828,6.32228 15.23475,7.71486 z m 0,0"
   id="path62"
   inkscape:connector-curvature="0"
   style="clip-rule:evenodd;fill:#80e5ff;fill-rule:evenodd;stroke-width:0.2785148" />
<path
   class="st5"
   d="m 164.94124,38.081363 c 3.28647,1.39257 3.62069,1.61538 4.01061,1.69894 0.38992,0.0836 1.7825,-0.9748 10.72282,1.08621 8.94033,2.06101 11.14059,8.77321 8.82892,15.79179 -2.31167,7.04642 -11.00133,9.35809 -16.79444,6.04377 -2.8687,-1.44828 -5.06897,-4.37269 -8.80106,-9.49736 l -2.7573,-2.70159 -22.28118,-11.22415 -0.9191,-0.58488 c -3.70425,-2.36737 -5.96022,-5.76526 -4.31698,-9.99868 2.11671,-4.34483 6.12733,-4.03846 9.88728,-2.28382 l 7.18568,3.95491 c 0.0279,-0.0279 11.94828,6.32228 15.23475,7.71486 z m 0,0"
   id="path64"
   inkscape:connector-curvature="0"
   style="fill:none;stroke:#37abc8;stroke-width:1.00265324" />
<path
   class="st2"
   d="m 162.04469,40.560143 -5.34748,1.9496 -9.02388,-5.51459 -0.9191,-4.79045 c -1.50398,-0.64059 -2.39523,-1.69894 -4.95756,-1.61539 -2.56234,0.0836 -3.45359,3.53714 -2.03316,5.93237 1.39257,2.39522 16.20956,8.43899 22.504,12.70027 4.20556,2.70159 7.26922,6.57295 8.68965,7.90982 1.42042,1.30902 2.95226,1.9496 4.62334,2.31167 1.67109,0.33422 6.5451,-0.83554 7.77057,-2.70159 1.25331,-1.86605 1.25331,-3.50929 1.14191,-5.626 -0.13926,-2.47878 -1.39258,-4.51194 -4.20558,-6.07162 -2.95225,-1.08621 -6.07162,-1.33687 -9.27454,-1.67109 -3.37003,-0.0557 -6.18303,-1.42043 -8.96817,-2.813 z m 0,0"
   id="path66"
   inkscape:connector-curvature="0"
   style="clip-rule:evenodd;fill:#ffffff;fill-rule:evenodd;stroke-width:0.2785148" />
<path
   class="st5"
   d="m 162.04469,40.560143 -5.34748,1.9496 -9.02388,-5.51459 -0.9191,-4.79045 c -1.50398,-0.64059 -2.39523,-1.69894 -4.95756,-1.61539 -2.56234,0.0836 -3.45359,3.53714 -2.03316,5.93237 1.39257,2.39522 16.20956,8.43899 22.504,12.70027 4.20556,2.70159 7.26922,6.57295 8.68965,7.90982 1.42042,1.30902 2.95226,1.9496 4.62334,2.31167 1.67109,0.33422 6.5451,-0.83554 7.77057,-2.70159 1.25331,-1.86605 1.25331,-3.50929 1.14191,-5.626 -0.13926,-2.47878 -1.39258,-4.51194 -4.20558,-6.07162 -2.95225,-1.08621 -6.07162,-1.33687 -9.27454,-1.67109 -3.37003,-0.0557 -6.18303,-1.42043 -8.96817,-2.813 z m 0,0"
   id="path68"
   inkscape:connector-curvature="0"
   style="fill:none;stroke:#37abc8;stroke-width:1.00265324" />
<path
   class="st7"
   d="m 77.738256,17.638373 c -5.208221,6.18303 -4.400531,15.42972 1.81035,20.63795 6.18303,5.20823 15.42972,4.40053 20.637954,-1.81035 5.20822,-6.18303 4.40053,-15.42972 -1.810354,-20.63794 -6.21088,-5.20823 -15.45757,-4.40054 -20.63795,1.81034 z m 0,0"
   id="path70"
   inkscape:connector-curvature="0"
   style="fill:#80e5ff;stroke-width:0.2785148" />
<path
   class="st5"
   d="m 77.738256,17.638373 c -5.208221,6.18303 -4.400531,15.42972 1.81035,20.63795 6.18303,5.20823 15.42972,4.40053 20.637954,-1.81035 5.20822,-6.18303 4.40053,-15.42972 -1.810354,-20.63794 -6.21088,-5.20823 -15.45757,-4.40054 -20.63795,1.81034 z m 0,0"
   id="path72"
   inkscape:connector-curvature="0"
   style="fill:none;stroke:#37abc8;stroke-width:1.00265324" />
<path
   class="st0"
   d="m 82.278046,21.175513 c -3.31432,3.95491 -2.84085,9.77587 1.03051,13.03449 3.87135,3.25863 9.69231,2.7016 13.00664,-1.25331 3.31433,-3.95491 2.84085,-9.77587 -1.0305,-13.0345 -3.87136,-3.25862 -9.72017,-2.70159 -13.00665,1.25332 z m 0,0"
   id="path74"
   inkscape:connector-curvature="0"
   style="fill:#ffffff;stroke-width:0.2785148" />
<path
   class="st5"
   d="m 82.278046,21.175513 c -3.31432,3.95491 -2.84085,9.77587 1.03051,13.03449 3.87135,3.25863 9.69231,2.7016 13.00664,-1.25331 3.31433,-3.95491 2.84085,-9.77587 -1.0305,-13.0345 -3.87136,-3.25862 -9.72017,-2.70159 -13.00665,1.25332 z m 0,0"
   id="path76"
   inkscape:connector-curvature="0"
   style="fill:none;stroke:#37abc8;stroke-width:1.00265324" />
<path
   class="st2"
   d="m 191.65081,95.288301 0.27851,4.23343 c 0.13926,1.838189 -0.0557,4.344829 1.44828,5.096819 l 0.33422,5.45889 2.25597,-0.0836 c -0.52918,-5.7374 -0.50133,-8.80107 -0.77984,-14.844839 z m 0,0"
   id="path78"
   inkscape:connector-curvature="0"
   style="clip-rule:evenodd;fill:#ffffff;fill-rule:evenodd;stroke-width:0.2785148" />
<path
   class="st5"
   d="m 191.65081,95.288301 0.27851,4.23343 c 0.13926,1.838189 -0.0557,4.344829 1.44828,5.096819 l 0.33422,5.45889 2.25597,-0.0836 c -0.52918,-5.7374 -0.50133,-8.80107 -0.77984,-14.844839 z m 0,0"
   id="path80"
   inkscape:connector-curvature="0"
   style="fill:none;stroke:#37abc8;stroke-width:1.00265324" />
<path
   class="st6"
   d="m 195.71713,103.56019 c 2.36737,-0.19496 2.061,0.11141 2.14456,2.8687 0.22281,2.89656 0.69629,3.59284 -1.67109,3.59284 z m 0,0"
   id="path82"
   inkscape:connector-curvature="0"
   style="clip-rule:evenodd;fill:#80e5ff;fill-rule:evenodd;stroke-width:0.2785148" />
<path
   class="st5"
   d="m 195.71713,103.56019 c 2.36737,-0.19496 2.061,0.11141 2.14456,2.8687 0.22281,2.89656 0.69629,3.59284 -1.67109,3.59284 z m 0,0"
   id="path84"
   inkscape:connector-curvature="0"
   style="fill:none;stroke:#37abc8;stroke-width:1.00265324" />
<path
   class="st6"
   d="m 198.69723,86.598643 c -15.48542,0.69629 -15.2069,0.0279 -15.06765,2.53448 0.13926,2.50664 -0.33422,1.97746 15.23476,1.33687 15.56898,-0.64058 15.12336,0.0557 15.01195,-2.45093 -0.13926,-2.56233 0.30637,-2.14456 -15.17906,-1.42042 z m 0,0"
   id="path86"
   inkscape:connector-curvature="0"
   style="clip-rule:evenodd;fill:#80e5ff;fill-rule:evenodd;stroke-width:0.2785148" />
<path
   class="st5"
   d="m 198.69723,86.598643 c -15.48542,0.69629 -15.2069,0.0279 -15.06765,2.53448 0.13926,2.50664 -0.33422,1.97746 15.23476,1.33687 15.56898,-0.64058 15.12336,0.0557 15.01195,-2.45093 -0.13926,-2.56233 0.30637,-2.14456 -15.17906,-1.42042 z m 0,0"
   id="path88"
   inkscape:connector-curvature="0"
   style="fill:none;stroke:#37abc8;stroke-width:1.00265324" />
<path
   class="st6"
   d="m 115.17065,172.07483 c -1.25331,0.27852 -1.05835,-0.38992 -2.64589,-9.4138 -1.58753,-9.02388 -2.33952,-9.3581 -0.9191,-9.83157 1.42043,-0.50133 1.22547,-0.19496 2.95226,9.16314 1.75464,9.35809 1.86605,9.80372 0.61273,10.08223 z m 0,0"
   id="path90"
   inkscape:connector-curvature="0"
   style="clip-rule:evenodd;fill:#80e5ff;fill-rule:evenodd;stroke-width:0.2785148" />
<path
   class="st5"
   d="m 115.17065,172.07483 c -1.25331,0.27852 -1.05835,-0.38992 -2.64589,-9.4138 -1.58753,-9.02388 -2.33952,-9.3581 -0.9191,-9.83157 1.42043,-0.50133 1.22547,-0.19496 2.95226,9.16314 1.75464,9.35809 1.86605,9.80372 0.61273,10.08223 z m 0,0"
   id="path92"
   inkscape:connector-curvature="0"
   style="fill:none;stroke:#37abc8;stroke-width:1.00265324" />
<path
   class="st6"
   d="m 92.053916,164.19286 3.75995,-0.0557 c 0.0279,2.03316 -0.25066,3.28648 -1.86605,3.34218 -1.61538,0.0557 -1.8939,-1.30902 -1.8939,-3.28648 z m 0,0"
   id="path94"
   inkscape:connector-curvature="0"
   style="clip-rule:evenodd;fill:#80e5ff;fill-rule:evenodd;stroke-width:0.2785148" />
<path
   class="st5"
   d="m 92.053916,164.19286 3.75995,-0.0557 c 0.0279,2.03316 -0.25066,3.28648 -1.86605,3.34218 -1.61538,0.0557 -1.8939,-1.30902 -1.8939,-3.28648 z m 0,0"
   id="path96"
   inkscape:connector-curvature="0"
   style="fill:none;stroke:#37abc8;stroke-width:1.00265324" />
<path
   class="st6"
   d="m 100.60433,163.85865 c 1.22546,0 1.75464,1.19761 1.78249,1.86604 0,0.66844 -0.61273,1.69895 -1.81034,1.67109 -1.197624,-0.0279 -1.866054,-0.77984 -1.838204,-1.58753 0.0279,-0.80769 0.64058,-1.92175 1.866054,-1.9496 z m 0,0"
   id="path98"
   inkscape:connector-curvature="0"
   style="clip-rule:evenodd;fill:#80e5ff;fill-rule:evenodd;stroke-width:0.2785148" />
<path
   class="st5"
   d="m 100.60433,163.85865 c 1.22546,0 1.75464,1.19761 1.78249,1.86604 0,0.66844 -0.61273,1.69895 -1.81034,1.67109 -1.197624,-0.0279 -1.866054,-0.77984 -1.838204,-1.58753 0.0279,-0.80769 0.64058,-1.92175 1.866054,-1.9496 z m 0,0"
   id="path100"
   inkscape:connector-curvature="0"
   style="fill:none;stroke:#37abc8;stroke-width:1.00265324" />
</svg>