<svg version="1.1" xmlns="http://www.w3.org/2000/svg" xmlns:xlink="http://www.w3.org/1999/xlink" x="0" y="0" width="337.176" height="98.796" viewBox="0, 0, 337.176, 98.796"><g transform="translate(-1.485, -1.469)"><g><path d="M69.012,50.815 L69.012,50.866 C69.012,60.867 60.882,68.996 50.881,68.996 C40.881,68.996 32.751,60.867 32.751,50.866 C32.751,40.866 40.882,32.736 50.881,32.736 L50.881,37.551 C43.538,37.551 37.558,43.522 37.558,50.866 C37.558,58.211 43.538,64.182 50.881,64.182 C58.226,64.182 64.198,58.21 64.198,50.866 L64.198,50.815 L69.012,50.815" fill="#1A2857"/><path d="M83.401,50.866 C83.401,59.553 80.022,67.725 73.881,73.866 C67.881,79.857 59.954,83.229 51.499,83.387 L51.499,75.668 C54.595,75.594 57.594,74.953 60.378,73.8 C63.347,72.571 66.08,70.755 68.424,68.41 C73.113,63.728 75.689,57.498 75.689,50.866 C75.689,44.242 73.113,38.012 68.424,33.322 C63.736,28.641 57.505,26.058 50.881,26.058 C44.256,26.058 38.026,28.641 33.337,33.322 C28.714,37.945 26.147,44.072 26.072,50.591 L18.361,50.591 C18.436,42.009 21.807,33.948 27.882,27.867 C34.03,21.727 42.195,18.347 50.882,18.347 C59.568,18.347 67.732,21.727 73.882,27.867 C80.021,34.015 83.401,42.181 83.401,50.866" fill="#1A2857"/><path d="M63.702,38.044 C62.16,36.503 60.384,35.29 58.459,34.409 C55.708,35.447 53.746,38.094 53.746,41.209 C53.746,45.227 57.002,48.482 61.018,48.482 C64.007,48.482 66.573,46.679 67.691,44.102 C66.796,41.862 65.459,39.803 63.702,38.044" fill="#C52032"/><path d="M51.356,1.469 C51.032,1.482 50.705,1.481 50.384,1.503 L50.384,1.476 C50.082,1.478 49.786,1.499 49.487,1.507 C49.44,1.508 49.393,1.511 49.346,1.512 C48.596,1.534 47.851,1.573 47.11,1.627 C47.073,1.631 47.035,1.634 46.999,1.638 C46.243,1.697 45.49,1.77 44.745,1.864 C44.714,1.868 44.682,1.873 44.652,1.876 C43.896,1.972 43.146,2.082 42.402,2.21 C42.359,2.218 42.314,2.227 42.271,2.235 C41.539,2.365 40.813,2.506 40.093,2.668 C39.996,2.689 39.9,2.714 39.803,2.737 C39.138,2.889 38.475,3.05 37.823,3.23 C37.619,3.285 37.418,3.35 37.216,3.407 C36.671,3.564 36.127,3.723 35.59,3.899 C35.246,4.009 34.907,4.135 34.565,4.254 C34.174,4.392 33.78,4.524 33.394,4.671 C32.914,4.852 32.438,5.051 31.962,5.248 C31.721,5.349 31.476,5.443 31.236,5.547 C30.656,5.799 30.082,6.069 29.507,6.346 C29.378,6.408 29.245,6.467 29.115,6.53 C28.484,6.841 27.858,7.17 27.238,7.508 C27.17,7.546 27.102,7.58 27.033,7.617 C26.39,7.972 25.756,8.346 25.124,8.732 C25.082,8.76 25.039,8.783 24.997,8.81 C24.362,9.201 23.737,9.61 23.115,10.034 C23.081,10.057 23.048,10.078 23.014,10.102 C22.392,10.527 21.779,10.97 21.171,11.428 C21.148,11.445 21.126,11.463 21.102,11.48 C20.848,11.671 20.589,11.853 20.337,12.052 C15.514,15.847 11.598,20.373 8.604,25.344 C8.533,25.461 8.469,25.579 8.399,25.696 C8.09,26.217 7.786,26.738 7.499,27.27 C7.273,27.683 7.064,28.103 6.85,28.521 C6.729,28.76 6.602,28.995 6.485,29.234 C3.288,35.772 1.485,43.113 1.485,50.867 C1.485,55.359 2.099,59.706 3.227,63.846 C3.252,63.935 3.279,64.025 3.304,64.116 C3.485,64.769 3.678,65.419 3.885,66.059 C3.953,66.271 4.03,66.482 4.1,66.693 C4.275,67.212 4.455,67.729 4.646,68.241 C4.772,68.575 4.909,68.906 5.04,69.239 C5.196,69.622 5.348,70.006 5.512,70.385 C5.7,70.824 5.902,71.259 6.104,71.695 C6.229,71.963 6.352,72.231 6.48,72.498 C6.73,73.009 6.994,73.517 7.263,74.023 C7.361,74.205 7.454,74.388 7.554,74.57 C7.859,75.126 8.178,75.676 8.507,76.224 C8.582,76.349 8.655,76.475 8.731,76.6 C9.085,77.179 9.455,77.752 9.835,78.32 C9.892,78.404 9.946,78.488 10.003,78.572 C10.407,79.168 10.828,79.755 11.26,80.339 C11.292,80.381 11.323,80.423 11.355,80.465 C11.593,80.784 11.822,81.108 12.068,81.419 C16.342,86.849 21.535,91.132 27.252,94.237 C27.478,94.36 27.71,94.474 27.938,94.595 C28.364,94.818 28.792,95.044 29.224,95.254 C29.782,95.526 30.348,95.783 30.917,96.037 C31.024,96.084 31.129,96.134 31.237,96.181 C37.262,98.803 43.902,100.265 50.881,100.265 C54.439,100.265 57.907,99.878 61.253,99.16 C61.33,99.144 61.406,99.125 61.482,99.108 C62.164,98.957 62.843,98.798 63.514,98.62 C63.716,98.567 63.915,98.506 64.116,98.45 C64.659,98.299 65.203,98.146 65.739,97.977 C66.107,97.86 66.472,97.732 66.838,97.607 C67.201,97.481 67.568,97.364 67.929,97.23 C68.455,97.037 68.977,96.825 69.5,96.613 C69.694,96.533 69.892,96.46 70.084,96.378 C70.727,96.107 71.364,95.816 71.998,95.517 C72.066,95.485 72.136,95.455 72.204,95.422 C75.284,93.947 78.257,92.138 81.065,89.969 L81.045,89.946 C92.617,80.992 100.129,67.033 100.271,51.335 L89.456,51.335 C89.28,66.473 80.341,79.538 67.486,85.693 L67.47,85.7 C66.931,85.958 66.384,86.203 65.831,86.436 C65.715,86.485 65.599,86.528 65.485,86.576 C65.042,86.757 64.597,86.933 64.146,87.098 C63.878,87.197 63.608,87.285 63.338,87.376 C63.039,87.479 62.74,87.583 62.437,87.679 C62.01,87.814 61.578,87.935 61.147,88.053 C60.997,88.093 60.848,88.14 60.7,88.179 C60.148,88.325 59.595,88.455 59.038,88.574 C59.004,88.582 58.97,88.592 58.934,88.599 C51.081,90.261 42.87,89.43 35.517,86.251 C35.432,86.214 35.349,86.174 35.265,86.137 C34.822,85.942 34.384,85.74 33.947,85.527 C33.631,85.372 33.318,85.208 33.005,85.045 C32.806,84.941 32.605,84.84 32.407,84.733 C27.557,82.076 23.337,78.409 20.032,74.014 C19.991,73.96 19.952,73.907 19.911,73.853 C19.59,73.42 19.276,72.98 18.972,72.534 C18.913,72.446 18.854,72.361 18.797,72.273 C18.514,71.852 18.24,71.425 17.975,70.993 C17.9,70.871 17.828,70.749 17.757,70.627 C17.516,70.225 17.28,69.818 17.054,69.406 C16.961,69.238 16.873,69.069 16.783,68.899 C16.589,68.531 16.398,68.163 16.212,67.788 C16.097,67.55 15.987,67.309 15.875,67.069 C15.732,66.761 15.591,66.453 15.456,66.141 C15.313,65.81 15.178,65.477 15.045,65.143 C14.956,64.918 14.863,64.693 14.778,64.466 C14.612,64.026 14.459,63.587 14.311,63.145 C14.268,63.018 14.225,62.892 14.183,62.765 C14.009,62.223 13.845,61.679 13.694,61.132 C13.686,61.101 13.676,61.069 13.668,61.036 C11.211,52.002 12.137,42.339 16.214,33.951 C16.278,33.818 16.348,33.689 16.415,33.556 C16.605,33.175 16.801,32.797 17.004,32.422 C17.195,32.07 17.395,31.727 17.597,31.382 C17.688,31.228 17.774,31.074 17.865,30.922 C20.08,27.27 22.883,24.01 26.141,21.281 C26.15,21.272 26.161,21.264 26.17,21.257 C26.625,20.878 27.088,20.508 27.56,20.149 C27.592,20.126 27.623,20.103 27.653,20.08 C28.113,19.732 28.58,19.394 29.055,19.067 C29.09,19.043 29.127,19.019 29.162,18.995 C29.636,18.671 30.116,18.357 30.603,18.055 C30.641,18.031 30.68,18.009 30.72,17.984 C31.205,17.686 31.696,17.396 32.195,17.12 C32.249,17.09 32.303,17.062 32.357,17.033 C32.839,16.768 33.327,16.512 33.822,16.266 C33.923,16.218 34.025,16.172 34.125,16.123 C34.572,15.908 35.023,15.695 35.479,15.496 C35.674,15.411 35.873,15.333 36.07,15.252 C36.432,15.101 36.797,14.949 37.165,14.808 C37.494,14.683 37.827,14.569 38.158,14.454 C38.399,14.37 38.638,14.282 38.879,14.201 C39.344,14.051 39.813,13.913 40.281,13.779 C40.397,13.746 40.51,13.709 40.625,13.676 C41.184,13.522 41.748,13.384 42.312,13.255 C42.341,13.248 42.37,13.241 42.4,13.234 C44.196,12.832 46.013,12.56 47.836,12.418 C47.854,12.418 47.869,12.416 47.887,12.414 C48.471,12.37 49.054,12.339 49.639,12.321 C49.676,12.32 49.712,12.318 49.75,12.317 C50.285,12.301 50.821,12.304 51.356,12.312 L51.356,1.469" fill="#AAA9AA"/><path d="M154.26,79.109 L137.707,55.062 L145.388,55.062 L153.11,66.791 C153.355,67.182 153.636,67.619 153.95,68.102 C154.266,68.585 154.581,69.074 154.896,69.568 C155.209,70.064 155.504,70.54 155.778,71.001 C156.052,71.462 156.298,71.863 156.518,72.209 L156.601,72.209 C156.765,71.933 156.991,71.565 157.278,71.104 C157.565,70.646 157.875,70.162 158.204,69.657 C158.532,69.15 158.853,68.65 159.168,68.156 C159.483,67.661 159.764,67.241 160.01,66.896 L167.773,55.063 L175.25,55.063 L158.697,79.11 L154.26,79.11" fill="#C52032"/><path d="M183.132,55.062 L189.786,55.062 L189.786,79.109 L183.132,79.109 z" fill="#C52032"/><path d="M200.383,79.109 L200.383,74.588 L224.205,74.588 C224.587,74.588 224.847,74.548 224.983,74.468 C225.121,74.387 225.19,74.198 225.19,73.899 L225.19,69.379 C225.19,69.104 225.121,68.919 224.983,68.826 C224.846,68.735 224.587,68.687 224.205,68.687 L207.488,68.687 C206.119,68.687 204.981,68.608 204.078,68.447 C203.176,68.286 202.449,68.01 201.902,67.619 C201.354,67.228 200.963,66.704 200.731,66.05 C200.498,65.395 200.382,64.572 200.382,63.582 L200.382,60.1 C200.382,59.133 200.497,58.329 200.731,57.685 C200.962,57.041 201.354,56.523 201.902,56.131 C202.449,55.739 203.175,55.464 204.078,55.303 C204.981,55.143 206.119,55.063 207.488,55.063 L230.364,55.063 L230.364,59.236 L207.938,59.236 C207.554,59.236 207.289,59.272 207.138,59.34 C206.988,59.409 206.911,59.606 206.911,59.927 L206.911,63.824 C206.911,64.125 206.987,64.313 207.138,64.395 C207.288,64.474 207.554,64.515 207.938,64.515 L224.697,64.515 C226.066,64.515 227.209,64.595 228.127,64.755 C229.044,64.916 229.775,65.182 230.323,65.55 C230.872,65.916 231.261,66.418 231.493,67.05 C231.726,67.683 231.844,68.459 231.844,69.379 L231.844,74.036 C231.844,75.002 231.727,75.807 231.493,76.451 C231.261,77.097 230.872,77.618 230.323,78.021 C229.775,78.423 229.044,78.705 228.127,78.865 C227.209,79.027 226.066,79.108 224.697,79.108 L200.383,79.108" fill="#C52032"/><path d="M241.331,55.062 L247.983,55.062 L247.983,79.109 L241.331,79.109 z" fill="#C52032"/><path d="M265.07,79.282 C263.699,79.282 262.563,79.201 261.66,79.039 C260.757,78.88 260.031,78.579 259.483,78.143 C258.935,77.705 258.544,77.125 258.311,76.401 C258.08,75.676 257.962,74.74 257.962,73.589 L257.962,60.582 C257.962,59.455 258.079,58.523 258.311,57.788 C258.543,57.051 258.935,56.465 259.483,56.028 C260.031,55.59 260.756,55.293 261.66,55.131 C262.563,54.97 263.699,54.89 265.07,54.89 L286.221,54.89 C287.561,54.89 288.691,54.97 289.61,55.131 C290.526,55.293 291.258,55.591 291.805,56.028 C292.353,56.465 292.743,57.05 292.976,57.788 C293.209,58.523 293.327,59.455 293.327,60.582 L293.327,73.589 C293.327,74.739 293.21,75.676 292.976,76.401 C292.742,77.126 292.353,77.706 291.805,78.143 C291.258,78.58 290.526,78.88 289.61,79.039 C288.691,79.201 287.561,79.282 286.221,79.282 L265.07,79.282 M286.673,59.892 C286.673,59.571 286.605,59.375 286.467,59.305 C286.33,59.236 286.07,59.202 285.687,59.202 L265.644,59.202 C265.26,59.202 264.993,59.235 264.843,59.305 C264.692,59.375 264.617,59.571 264.617,59.892 L264.617,74.072 C264.617,74.372 264.691,74.562 264.843,74.64 C264.992,74.723 265.26,74.762 265.644,74.762 L285.687,74.762 C286.07,74.762 286.331,74.723 286.467,74.64 C286.605,74.562 286.673,74.371 286.673,74.072 L286.673,59.892 z" fill="#C52032"/><path d="M332.961,79.109 L313.985,65.239 C313.684,65.01 313.335,64.746 312.938,64.446 C312.541,64.146 312.151,63.842 311.766,63.532 C311.383,63.22 311.021,62.933 310.677,62.67 C310.335,62.404 310.068,62.18 309.877,61.996 L309.714,61.996 C309.739,62.343 309.776,62.848 309.816,63.516 C309.857,64.183 309.884,64.883 309.898,65.62 C309.913,66.355 309.925,67.081 309.939,67.793 C309.953,68.507 309.96,69.07 309.96,69.483 L309.96,79.109 L303.307,79.109 L303.307,55.062 L308.401,55.062 L327.746,69.208 C328.047,69.437 328.374,69.684 328.731,69.948 C329.086,70.212 329.429,70.478 329.757,70.742 C330.086,71.008 330.4,71.259 330.702,71.501 C331.003,71.743 331.249,71.945 331.44,72.105 L331.604,72.105 C331.578,71.76 331.549,71.259 331.523,70.605 C331.496,69.949 331.476,69.248 331.461,68.501 C331.446,67.755 331.433,67.029 331.421,66.327 C331.406,65.625 331.4,65.056 331.4,64.62 L331.4,55.063 L338.052,55.063 L338.052,79.11 L332.961,79.11" fill="#C52032"/><path d="M115.53,46.314 L106.291,37.31 L96.597,37.31 L96.597,46.314 L90.068,46.314 L90.068,22.268 L114.176,22.268 C115.518,22.268 116.634,22.343 117.524,22.492 C118.413,22.642 119.127,22.9 119.659,23.268 C120.193,23.635 120.569,24.124 120.788,24.734 C121.007,25.344 121.117,26.109 121.117,27.028 L121.117,32.41 C121.117,33.376 120.995,34.175 120.747,34.807 C120.5,35.44 120.096,35.941 119.535,36.308 C118.973,36.675 118.248,36.933 117.359,37.084 C116.469,37.233 115.38,37.308 114.093,37.308 L123.703,46.312 L115.53,46.312 M114.463,27.132 C114.463,26.81 114.393,26.614 114.257,26.546 C114.119,26.477 113.86,26.442 113.477,26.442 L96.596,26.442 L96.596,33.031 L113.477,33.031 C113.86,33.031 114.12,32.991 114.257,32.91 C114.393,32.83 114.463,32.64 114.463,32.342 L114.463,27.132 z" fill="#1A2857"/><path d="M137.709,46.487 C136.339,46.487 135.202,46.406 134.299,46.245 C133.396,46.085 132.67,45.786 132.122,45.349 C131.574,44.912 131.183,44.33 130.951,43.605 C130.718,42.882 130.602,41.944 130.602,40.794 L130.602,27.788 C130.602,26.662 130.717,25.73 130.951,24.994 C131.183,24.259 131.574,23.671 132.122,23.234 C132.67,22.797 133.395,22.498 134.299,22.337 C135.201,22.177 136.339,22.096 137.709,22.096 L158.86,22.096 C160.202,22.096 161.331,22.177 162.249,22.337 C163.167,22.498 163.897,22.797 164.446,23.234 C164.994,23.671 165.384,24.258 165.617,24.994 C165.85,25.731 165.966,26.662 165.966,27.788 L165.966,40.795 C165.966,41.945 165.85,42.883 165.617,43.606 C165.384,44.331 164.994,44.913 164.446,45.35 C163.898,45.787 163.167,46.086 162.249,46.246 C161.331,46.407 160.202,46.488 158.86,46.488 L137.709,46.488 M159.312,27.098 C159.312,26.775 159.243,26.58 159.106,26.51 C158.969,26.442 158.709,26.406 158.325,26.406 L138.283,26.406 C137.898,26.406 137.631,26.442 137.482,26.51 C137.331,26.58 137.256,26.775 137.256,27.098 L137.256,41.277 C137.256,41.577 137.331,41.767 137.482,41.846 C137.631,41.928 137.899,41.967 138.283,41.967 L158.325,41.967 C158.708,41.967 158.969,41.928 159.106,41.846 C159.242,41.766 159.312,41.577 159.312,41.277 L159.312,27.098 z" fill="#1A2857"/><path d="M174.305,46.314 L174.305,22.268 L198.414,22.268 C199.7,22.268 200.774,22.336 201.639,22.474 C202.501,22.613 203.184,22.859 203.692,23.216 C204.198,23.572 204.554,24.05 204.76,24.647 C204.965,25.246 205.068,26.006 205.068,26.925 L205.068,29.754 C205.068,30.513 204.959,31.14 204.74,31.634 C204.521,32.128 204.247,32.526 203.919,32.825 C203.59,33.122 203.24,33.348 202.871,33.496 C202.502,33.647 202.18,33.744 201.906,33.789 C202.179,33.835 202.508,33.928 202.892,34.066 C203.275,34.203 203.645,34.433 203.999,34.754 C204.354,35.077 204.65,35.525 204.882,36.101 C205.115,36.675 205.233,37.413 205.233,38.308 L205.233,41.276 C205.233,42.335 205.101,43.191 204.842,43.847 C204.582,44.502 204.163,45.015 203.589,45.383 C203.013,45.75 202.275,45.998 201.371,46.124 C200.468,46.251 199.358,46.314 198.043,46.314 L174.305,46.314 M198.578,27.062 C198.578,26.741 198.51,26.545 198.372,26.476 C198.235,26.406 197.976,26.372 197.593,26.372 L180.958,26.372 L180.958,31.754 L197.593,31.754 C197.977,31.754 198.236,31.715 198.372,31.633 C198.51,31.553 198.578,31.363 198.578,31.064 L198.578,27.062 z M198.578,36.551 C198.578,36.228 198.51,36.033 198.372,35.964 C198.235,35.896 197.976,35.86 197.593,35.86 L180.958,35.86 L180.958,41.933 L197.593,41.933 C197.977,41.933 198.236,41.893 198.372,41.81 C198.51,41.732 198.578,41.541 198.578,41.243 L198.578,36.551 z" fill="#1A2857"/><path d="M220.224,46.487 C218.853,46.487 217.716,46.406 216.814,46.245 C215.909,46.085 215.185,45.786 214.637,45.349 C214.089,44.912 213.698,44.33 213.465,43.605 C213.232,42.882 213.116,41.944 213.116,40.794 L213.116,27.788 C213.116,26.662 213.231,25.73 213.465,24.994 C213.697,24.259 214.089,23.671 214.637,23.234 C215.185,22.797 215.908,22.498 216.814,22.337 C217.716,22.177 218.853,22.096 220.224,22.096 L241.373,22.096 C242.715,22.096 243.845,22.177 244.763,22.337 C245.68,22.498 246.411,22.797 246.959,23.234 C247.507,23.671 247.897,24.258 248.13,24.994 C248.363,25.731 248.48,26.662 248.48,27.788 L248.48,40.795 C248.48,41.945 248.364,42.883 248.13,43.606 C247.897,44.331 247.507,44.913 246.959,45.35 C246.411,45.787 245.68,46.086 244.763,46.246 C243.845,46.407 242.715,46.488 241.373,46.488 L220.224,46.488 M241.826,27.098 C241.826,26.775 241.757,26.58 241.62,26.51 C241.482,26.442 241.223,26.406 240.84,26.406 L220.797,26.406 C220.413,26.406 220.146,26.442 219.996,26.51 C219.844,26.58 219.77,26.775 219.77,27.098 L219.77,41.277 C219.77,41.577 219.843,41.767 219.996,41.846 C220.145,41.928 220.413,41.967 220.797,41.967 L240.84,41.967 C241.223,41.967 241.483,41.928 241.62,41.846 C241.757,41.766 241.826,41.577 241.826,41.277 L241.826,27.098 z" fill="#1A2857"/><path d="M267.084,46.314 L267.084,26.58 L253.982,26.58 L253.982,22.268 L286.881,22.268 L286.881,26.58 L273.738,26.58 L273.738,46.314 L267.084,46.314" fill="#1A2857"/><path d="M292.631,22.268 L299.284,22.268 L299.284,46.314 L292.631,46.314 z" fill="#1A2857"/><path d="M314.728,46.314 C313.358,46.314 312.222,46.232 311.319,46.071 C310.415,45.911 309.69,45.612 309.142,45.175 C308.593,44.738 308.203,44.156 307.972,43.434 C307.739,42.708 307.622,41.771 307.622,40.621 L307.622,27.959 C307.622,26.833 307.738,25.9 307.972,25.165 C308.202,24.429 308.593,23.843 309.142,23.406 C309.69,22.969 310.414,22.671 311.319,22.51 C312.222,22.348 313.358,22.268 314.728,22.268 L338.304,22.268 L338.304,26.58 L315.303,26.58 C314.92,26.58 314.651,26.614 314.502,26.684 C314.351,26.753 314.275,26.948 314.275,27.27 L314.275,41.104 C314.275,41.404 314.35,41.593 314.502,41.674 C314.65,41.754 314.92,41.795 315.303,41.795 L338.304,41.795 L338.304,46.314 L314.728,46.314" fill="#1A2857"/><path d="M66.514,10.357 L61.912,10.357 L61.248,12.403 L59.106,12.403 L62.655,1.739 L65.695,1.739 L69.296,12.403 L67.193,12.403 L66.514,10.357 M66.045,8.864 L64.201,3.308 L62.388,8.864 L66.045,8.864 z" fill="#AAA9AA"/><path d="M81.577,1.739 L83.6,1.739 L83.599,8.834 C83.599,10.318 83.313,11.301 82.743,11.779 C82.174,12.258 81.008,12.498 79.247,12.498 C77.387,12.498 76.169,12.271 75.589,11.817 C75.012,11.364 74.722,10.409 74.722,8.95 L74.723,1.739 L76.747,1.739 L76.746,8.95 C76.746,9.737 76.888,10.235 77.168,10.446 C77.45,10.656 78.111,10.762 79.153,10.762 C80.22,10.762 80.891,10.655 81.165,10.442 C81.438,10.228 81.576,9.705 81.576,8.871 L81.577,1.739" fill="#AAA9AA"/><path d="M97.877,4.849 L95.901,4.849 C95.891,4.75 95.885,4.677 95.885,4.631 C95.838,4.032 95.705,3.655 95.486,3.5 C95.267,3.347 94.752,3.271 93.94,3.271 C92.98,3.271 92.355,3.359 92.06,3.536 C91.765,3.714 91.619,4.087 91.619,4.653 C91.619,5.324 91.738,5.73 91.977,5.863 C92.217,6 93.011,6.104 94.353,6.176 C95.942,6.265 96.969,6.492 97.436,6.856 C97.902,7.22 98.135,7.979 98.135,9.13 C98.135,10.547 97.861,11.463 97.314,11.876 C96.767,12.292 95.562,12.498 93.697,12.498 C92.02,12.498 90.905,12.295 90.355,11.888 C89.806,11.482 89.532,10.658 89.532,9.419 L89.523,9.028 L91.493,9.028 L91.501,9.255 C91.501,10 91.632,10.456 91.892,10.623 C92.152,10.79 92.864,10.873 94.026,10.873 C94.931,10.873 95.51,10.776 95.759,10.583 C96.009,10.391 96.134,9.944 96.134,9.247 C96.134,8.733 96.04,8.389 95.849,8.22 C95.659,8.051 95.25,7.947 94.618,7.912 L93.502,7.841 C91.813,7.743 90.735,7.508 90.267,7.138 C89.798,6.768 89.564,5.973 89.564,4.754 C89.564,3.509 89.846,2.68 90.412,2.266 C90.977,1.853 92.106,1.644 93.799,1.644 C95.404,1.644 96.485,1.834 97.043,2.215 C97.599,2.595 97.876,3.337 97.876,4.442 L97.876,4.849" fill="#AAA9AA"/><path d="M108.289,3.551 L108.289,12.403 L106.266,12.403 L106.266,3.551 L103.187,3.551 L103.188,1.738 L111.479,1.738 L111.478,3.551 L108.289,3.551" fill="#AAA9AA"/><path d="M116.998,12.403 L117,1.738 L122.257,1.738 C123.565,1.738 124.467,1.965 124.962,2.417 C125.456,2.871 125.703,3.69 125.703,4.879 C125.703,5.957 125.58,6.694 125.332,7.089 C125.085,7.485 124.578,7.758 123.812,7.91 L123.812,7.98 C124.995,8.053 125.586,8.743 125.586,10.052 L125.586,12.403 L123.563,12.403 L123.563,10.457 C123.563,9.358 123.02,8.809 121.937,8.809 L119.023,8.809 L119.023,12.403 L116.998,12.403 M119.022,7.105 L121.928,7.105 C122.621,7.105 123.081,6.981 123.307,6.734 C123.534,6.487 123.647,5.99 123.647,5.244 C123.647,4.484 123.55,3.993 123.353,3.771 C123.159,3.551 122.73,3.441 122.069,3.441 L119.021,3.441 L119.021,7.105 z" fill="#AAA9AA"/><path d="M138.584,10.356 L133.981,10.356 L133.317,12.403 L131.175,12.403 L134.723,1.737 L137.763,1.737 L141.364,12.403 L139.262,12.403 L138.584,10.356 M138.115,8.863 L136.271,3.308 L134.457,8.863 L138.115,8.863 z" fill="#AAA9AA"/><path d="M148.807,1.738 L148.807,10.591 L153.807,10.591 L153.807,12.403 L146.783,12.403 L146.785,1.738 L148.807,1.738" fill="#AAA9AA"/><path d="M161.354,1.738 L161.352,12.403 L159.329,12.403 L159.33,1.738 L161.354,1.738" fill="#AAA9AA"/><path d="M174.193,10.355 L169.59,10.355 L168.926,12.402 L166.784,12.402 L170.334,1.736 L173.373,1.736 L176.974,12.402 L174.871,12.402 L174.193,10.355 M173.724,8.861 L171.88,3.306 L170.067,8.861 L173.724,8.861 z" fill="#AAA9AA"/><path d="M192.295,1.736 L192.294,12.402 L188.863,12.402 L185.815,6.549 C185.664,6.258 185.427,5.746 185.104,5.019 L184.76,4.253 L184.425,3.487 L184.346,3.487 L184.378,4.19 L184.4,4.885 L184.416,6.283 L184.416,12.402 L182.393,12.402 L182.395,1.736 L185.826,1.736 L188.597,7.143 C188.843,7.622 189.127,8.203 189.451,8.886 L189.856,9.753 L190.262,10.628 L190.333,10.628 L190.31,9.94 L190.286,9.252 L190.271,7.877 L190.272,1.735 L192.295,1.735" fill="#AAA9AA"/><path d="M214.07,8.597 L216.102,8.597 L216.102,8.964 C216.102,10.448 215.831,11.408 215.289,11.844 C214.748,12.278 213.551,12.496 211.696,12.496 C209.59,12.496 208.297,12.152 207.811,11.465 C207.328,10.777 207.084,8.938 207.084,5.949 C207.084,4.188 207.412,3.03 208.07,2.475 C208.725,1.92 210.099,1.642 212.188,1.642 C213.709,1.642 214.724,1.87 215.236,2.327 C215.744,2.783 216,3.687 216,5.042 L216.009,5.285 L213.977,5.285 L213.977,5.01 C213.977,4.312 213.844,3.866 213.582,3.67 C213.319,3.476 212.719,3.378 211.781,3.378 C210.526,3.378 209.772,3.531 209.517,3.838 C209.265,4.146 209.139,5.057 209.139,6.573 C209.139,8.615 209.252,9.824 209.479,10.199 C209.707,10.573 210.44,10.761 211.678,10.761 C212.683,10.761 213.337,10.655 213.636,10.448 C213.937,10.24 214.086,9.781 214.086,9.072 L214.07,8.597" fill="#AAA9AA"/><path d="M223.686,3.44 L223.686,6.19 L228.686,6.19 L228.686,7.683 L223.686,7.683 L223.686,10.699 L229.007,10.699 L229.007,12.402 L221.66,12.402 L221.662,1.736 L228.961,1.736 L228.96,3.44 L223.686,3.44" fill="#AAA9AA"/><path d="M244.912,1.735 L244.911,12.401 L241.48,12.401 L238.432,6.548 C238.281,6.257 238.043,5.746 237.72,5.018 L237.378,4.252 L237.041,3.486 L236.962,3.486 L236.995,4.189 L237.017,4.884 L237.033,6.283 L237.033,12.401 L235.01,12.401 L235.011,1.735 L238.442,1.735 L241.213,7.142 C241.459,7.621 241.743,8.202 242.067,8.885 L242.472,9.752 L242.878,10.627 L242.949,10.627 L242.925,9.94 L242.901,9.252 L242.887,7.877 L242.888,1.736 L244.912,1.736" fill="#AAA9AA"/><path d="M255.533,3.549 L255.533,12.401 L253.51,12.401 L253.51,3.549 L250.432,3.549 L250.433,1.735 L258.723,1.735 L258.722,3.549 L255.533,3.549" fill="#AAA9AA"/><path d="M264.241,12.401 L264.242,1.735 L269.501,1.735 C270.809,1.735 271.709,1.962 272.204,2.414 C272.698,2.868 272.946,3.687 272.946,4.875 C272.946,5.955 272.821,6.69 272.573,7.086 C272.327,7.482 271.82,7.756 271.053,7.907 L271.053,7.976 C272.238,8.049 272.827,8.741 272.827,10.048 L272.827,12.4 L270.804,12.4 L270.804,10.454 C270.804,9.355 270.263,8.806 269.179,8.806 L266.264,8.806 L266.264,12.401 L264.241,12.401 M266.265,7.103 L269.172,7.103 C269.864,7.103 270.325,6.979 270.55,6.731 C270.778,6.484 270.89,5.988 270.89,5.243 C270.89,4.482 270.793,3.991 270.598,3.769 C270.403,3.55 269.974,3.438 269.313,3.438 L266.265,3.438 L266.265,7.103 z" fill="#AAA9AA"/><path d="M280.866,3.438 L280.866,6.189 L285.865,6.189 L285.865,7.681 L280.866,7.681 L280.866,10.697 L286.187,10.697 L286.187,12.401 L278.841,12.401 L278.842,1.735 L286.141,1.735 L286.139,3.438 L280.866,3.438" fill="#AAA9AA"/><path d="M305.271,3.438 L305.271,6.312 L310.055,6.312 L310.055,8.016 L305.271,8.016 L305.271,12.399 L303.248,12.399 L303.249,1.734 L310.314,1.734 L310.312,3.438 L305.271,3.438" fill="#AAA9AA"/><path d="M320.476,1.64 C322.414,1.64 323.663,1.962 324.217,2.605 C324.774,3.249 325.053,4.688 325.053,6.922 C325.053,9.365 324.773,10.905 324.213,11.539 C323.653,12.175 322.296,12.493 320.146,12.493 C318.208,12.493 316.956,12.18 316.389,11.552 C315.82,10.925 315.535,9.543 315.535,7.406 C315.535,4.864 315.813,3.268 316.371,2.618 C316.932,1.966 318.298,1.64 320.476,1.64 M320.317,3.375 C318.959,3.375 318.164,3.551 317.934,3.898 C317.705,4.248 317.59,5.456 317.59,7.523 C317.59,9.055 317.724,9.977 317.991,10.289 C318.26,10.601 319.051,10.758 320.364,10.758 C321.618,10.758 322.371,10.582 322.622,10.23 C322.872,9.878 322.997,8.813 322.997,7.032 C322.997,5.244 322.879,4.189 322.642,3.864 C322.405,3.538 321.63,3.375 320.317,3.375 z" fill="#AAA9AA"/><path d="M329.956,12.399 L329.958,1.733 L335.217,1.733 C336.524,1.733 337.427,1.96 337.92,2.412 C338.415,2.866 338.661,3.685 338.661,4.873 C338.661,5.953 338.537,6.688 338.29,7.084 C338.043,7.48 337.536,7.754 336.77,7.905 L336.77,7.976 C337.953,8.048 338.542,8.739 338.542,10.047 L338.542,12.398 L336.519,12.398 L336.519,10.452 C336.519,9.353 335.978,8.804 334.894,8.804 L331.979,8.804 L331.979,12.398 L329.956,12.398 M331.979,7.103 L334.886,7.103 C335.578,7.103 336.039,6.978 336.266,6.73 C336.494,6.483 336.606,5.986 336.606,5.242 C336.606,4.481 336.507,3.989 336.312,3.769 C336.118,3.549 335.688,3.437 335.028,3.437 L331.979,3.437 L331.979,7.103 z" fill="#AAA9AA"/></g></g></svg>
